@startuml kikurage_platform
    ' ***** Device tables
    entity device_status as "device_status" {
        * device_id INTEGER [PK]
        --
        temperature INTEGER
        humidity INTEGER
        status_type ENUM('NORMAL', 'WET', 'DRY')
    }
    entity device_status_graph as "device_status_graph" {
        * id INTEGER [PK]
        --
        * device_id INTEGER [FK]
        temperature INTEGER
        humidity INTEGER
        date DATE
        week CHAR(3)
    }

    ' ***** User tables
    entity user as "user" {
        * id INTEGER [PK]
        --
        device_id INTEGER [FK]
        email VARCHAR(256) UNIQUE
        password VARCHAR(128)
        name VARCHAR(32)
        role_type ENUM('ADMIN', 'USER')
        created_at DATE
        updated_at DATE
    }
    entity user_cultivation as "user_cultivation" {
        * id INTEGER [PK]
        --
        user_id INTEGER [FK]
        cultivation_id INTEGER [FK]
    }
    entity cultivation as "cultivation" {
        * id INTEGER [PK]
        --
        memo VARCHAR(256)
        image_path_1 CHAR
        image_path_2 CHAR
        image_path_3 CHAR
        image_path_4 CHAR
        image_path_5 CHAR
        image_path_6 CHAR
        image_path_7 CHAR
        image_path_8 CHAR
        record_date DATE
        created_at DATE
        updated_at DATE
    }
    entity user_recipe as "user_recipe" {
        * id INTEGER [PK]
        --
        user_id INTEGER [FK]
        recipe_id INTEGER [FK]
    }
    entity recipe as "recipe" {
        * id INTEGER [PK]
        --
        memo VARCHAR(256)
        image_path CHAR
        record_date DATE
        created_at DATE
        updated_at DATE
    }

    ' ***** Relationship
    user |o-- device_status
    device_status ||--o{ device_status_graph
    user |o--o{ user_cultivation
    user_cultivation |o-d-o{ cultivation
    user |o--o{ user_recipe
    user_recipe |o-d-o{ recipe
@enduml